solid Exported from Blender-2.77 (sub 0)
facet normal -0.000000 0.000000 -1.000000
outer loop
vertex 1.775657 -1.109291 5.975982
vertex 1.775657 -3.109291 5.975982
vertex -0.224343 -3.109290 5.975982
endloop
endfacet
facet normal 0.000001 0.000000 -1.000000
outer loop
vertex -0.224343 -3.109290 5.975982
vertex -0.224343 -1.109290 5.975982
vertex 1.775657 -1.109291 5.975982
endloop
endfacet
facet normal 0.000000 0.000000 1.000000
outer loop
vertex 1.775657 -1.109291 7.975982
vertex -0.224343 -1.109291 7.975982
vertex -0.224344 -3.109290 7.975982
endloop
endfacet
facet normal 0.000000 0.000000 1.000000
outer loop
vertex -0.224344 -3.109290 7.975982
vertex 1.775656 -3.109291 7.975982
vertex 1.775657 -1.109291 7.975982
endloop
endfacet
facet normal 1.000000 -0.000001 -0.000000
outer loop
vertex 1.775657 -1.109291 5.975982
vertex 1.775657 -1.109291 7.975982
vertex 1.775656 -3.109291 7.975982
endloop
endfacet
facet normal 1.000000 0.000000 0.000000
outer loop
vertex 1.775656 -3.109291 7.975982
vertex 1.775657 -3.109291 5.975982
vertex 1.775657 -1.109291 5.975982
endloop
endfacet
facet normal -0.000000 -1.000000 0.000000
outer loop
vertex 1.775657 -3.109291 5.975982
vertex 1.775656 -3.109291 7.975982
vertex -0.224344 -3.109290 7.975982
endloop
endfacet
facet normal -0.000000 -1.000000 0.000000
outer loop
vertex -0.224344 -3.109290 7.975982
vertex -0.224343 -3.109290 5.975982
vertex 1.775657 -3.109291 5.975982
endloop
endfacet
facet normal -1.000000 0.000000 -0.000000
outer loop
vertex -0.224343 -3.109290 5.975982
vertex -0.224344 -3.109290 7.975982
vertex -0.224343 -1.109291 7.975982
endloop
endfacet
facet normal -1.000000 0.000000 -0.000000
outer loop
vertex -0.224343 -1.109291 7.975982
vertex -0.224343 -1.109290 5.975982
vertex -0.224343 -3.109290 5.975982
endloop
endfacet
facet normal 0.000000 1.000000 0.000000
outer loop
vertex 1.775657 -1.109291 7.975982
vertex 1.775657 -1.109291 5.975982
vertex -0.224343 -1.109290 5.975982
endloop
endfacet
facet normal 0.000000 1.000000 0.000000
outer loop
vertex -0.224343 -1.109290 5.975982
vertex -0.224343 -1.109291 7.975982
vertex 1.775657 -1.109291 7.975982
endloop
endfacet
endsolid Exported from Blender-2.77 (sub 0)
