solid Exported from Blender-2.77 (sub 0)
facet normal -0.785872 -0.618389 0.000000
outer loop
vertex 1.360463 2.540700 4.000000
vertex 1.000000 2.998790 4.000000
vertex 1.360463 2.540700 3.800000
endloop
endfacet
facet normal -0.785872 -0.618390 0.000000
outer loop
vertex 1.000000 2.998790 4.000000
vertex 1.000000 2.998790 3.800000
vertex 1.360463 2.540700 3.800000
endloop
endfacet
facet normal -0.130559 0.991441 0.000000
outer loop
vertex 1.000000 2.998790 4.000000
vertex 1.128412 3.015700 4.000000
vertex 1.000000 2.998790 3.800000
endloop
endfacet
facet normal -0.130559 0.991441 0.000000
outer loop
vertex 1.128412 3.015700 4.000000
vertex 1.128412 3.015700 3.800000
vertex 1.000000 2.998790 3.800000
endloop
endfacet
facet normal 0.130523 0.991445 0.000000
outer loop
vertex 1.516641 2.964590 4.000000
vertex 1.516641 2.964590 3.800000
vertex 1.128412 3.015700 4.000000
endloop
endfacet
facet normal 0.130523 0.991445 0.000000
outer loop
vertex 1.128412 3.015700 4.000000
vertex 1.516641 2.964590 3.800000
vertex 1.128412 3.015700 3.800000
endloop
endfacet
facet normal 0.382682 0.923880 0.000000
outer loop
vertex 1.878412 2.814740 4.000000
vertex 1.878412 2.814740 3.800000
vertex 1.516641 2.964590 4.000000
endloop
endfacet
facet normal 0.382682 0.923880 0.000000
outer loop
vertex 1.516641 2.964590 4.000000
vertex 1.878412 2.814740 3.800000
vertex 1.516641 2.964590 3.800000
endloop
endfacet
facet normal 0.608768 0.793348 0.000000
outer loop
vertex 2.189070 2.576360 4.000000
vertex 2.189070 2.576360 3.800000
vertex 1.878412 2.814740 4.000000
endloop
endfacet
facet normal 0.608768 0.793349 0.000000
outer loop
vertex 1.878412 2.814740 4.000000
vertex 2.189070 2.576360 3.800000
vertex 1.878412 2.814740 3.800000
endloop
endfacet
facet normal 0.793350 0.608766 0.000000
outer loop
vertex 2.427450 2.265700 4.000000
vertex 2.427450 2.265700 3.800000
vertex 2.189070 2.576360 4.000000
endloop
endfacet
facet normal 0.793351 0.608764 0.000000
outer loop
vertex 2.189070 2.576360 4.000000
vertex 2.427450 2.265700 3.800000
vertex 2.189070 2.576360 3.800000
endloop
endfacet
facet normal 0.923880 0.382682 0.000000
outer loop
vertex 2.577300 1.903930 4.000000
vertex 2.577300 1.903930 3.800000
vertex 2.427450 2.265700 4.000000
endloop
endfacet
facet normal 0.923879 0.382684 0.000000
outer loop
vertex 2.427450 2.265700 4.000000
vertex 2.577300 1.903930 3.800000
vertex 2.427450 2.265700 3.800000
endloop
endfacet
facet normal 0.991445 0.130522 0.000000
outer loop
vertex 2.628410 1.515700 4.000000
vertex 2.628410 1.515700 3.800000
vertex 2.577300 1.903930 4.000000
endloop
endfacet
facet normal 0.991445 0.130522 0.000000
outer loop
vertex 2.577300 1.903930 4.000000
vertex 2.628410 1.515700 3.800000
vertex 2.577300 1.903930 3.800000
endloop
endfacet
facet normal 0.991445 -0.130522 0.000000
outer loop
vertex 2.577300 1.127470 4.000000
vertex 2.577300 1.127470 3.800000
vertex 2.628410 1.515700 4.000000
endloop
endfacet
facet normal 0.991445 -0.130522 0.000000
outer loop
vertex 2.628410 1.515700 4.000000
vertex 2.577300 1.127470 3.800000
vertex 2.628410 1.515700 3.800000
endloop
endfacet
facet normal 0.923879 -0.382685 0.000000
outer loop
vertex 2.427450 0.765700 4.000000
vertex 2.427450 0.765700 3.800000
vertex 2.577300 1.127470 4.000000
endloop
endfacet
facet normal 0.923880 -0.382682 0.000000
outer loop
vertex 2.577300 1.127470 4.000000
vertex 2.427450 0.765700 3.800000
vertex 2.577300 1.127470 3.800000
endloop
endfacet
facet normal 0.793350 -0.608765 0.000000
outer loop
vertex 2.189070 0.455040 4.000000
vertex 2.189070 0.455040 3.800000
vertex 2.427450 0.765700 4.000000
endloop
endfacet
facet normal 0.793351 -0.608764 0.000000
outer loop
vertex 2.427450 0.765700 4.000000
vertex 2.189070 0.455040 3.800000
vertex 2.427450 0.765700 3.800000
endloop
endfacet
facet normal 0.608764 -0.793351 0.000000
outer loop
vertex 1.878412 0.216662 4.000000
vertex 1.878412 0.216662 3.800000
vertex 2.189070 0.455040 4.000000
endloop
endfacet
facet normal 0.608764 -0.793351 0.000000
outer loop
vertex 2.189070 0.455040 4.000000
vertex 1.878412 0.216662 3.800000
vertex 2.189070 0.455040 3.800000
endloop
endfacet
facet normal 0.382684 -0.923879 0.000000
outer loop
vertex 1.516641 0.066811 4.000000
vertex 1.516641 0.066811 3.800000
vertex 1.878412 0.216662 4.000000
endloop
endfacet
facet normal 0.382684 -0.923879 0.000000
outer loop
vertex 1.878412 0.216662 4.000000
vertex 1.516641 0.066811 3.800000
vertex 1.878412 0.216662 3.800000
endloop
endfacet
facet normal 0.130526 -0.991445 0.000000
outer loop
vertex 1.128412 0.015700 4.000000
vertex 1.128412 0.015700 3.800000
vertex 1.516641 0.066811 4.000000
endloop
endfacet
facet normal 0.130526 -0.991445 0.000000
outer loop
vertex 1.516641 0.066811 4.000000
vertex 1.128412 0.015700 3.800000
vertex 1.516641 0.066811 3.800000
endloop
endfacet
facet normal -0.130527 -0.991445 0.000000
outer loop
vertex 1.128412 0.015700 4.000000
vertex 1.000000 0.032606 4.000000
vertex 1.128412 0.015700 3.800000
endloop
endfacet
facet normal -0.130526 -0.991445 0.000000
outer loop
vertex 1.000000 0.032606 4.000000
vertex 1.000000 0.032606 3.800000
vertex 1.128412 0.015700 3.800000
endloop
endfacet
facet normal -0.785874 0.618387 0.000000
outer loop
vertex 1.000000 0.032606 4.000000
vertex 1.360463 0.490700 4.000000
vertex 1.000000 0.032606 3.800000
endloop
endfacet
facet normal -0.785875 0.618385 0.000000
outer loop
vertex 1.360463 0.490700 4.000000
vertex 1.360463 0.490700 3.800000
vertex 1.000000 0.032606 3.800000
endloop
endfacet
facet normal -0.927156 0.374675 0.000000
outer loop
vertex 1.360463 0.490700 4.000000
vertex 1.560264 0.985121 4.000000
vertex 1.360463 0.490700 3.800000
endloop
endfacet
facet normal -0.927157 0.374674 0.000000
outer loop
vertex 1.560264 0.985121 4.000000
vertex 1.560264 0.985121 3.800000
vertex 1.360463 0.490700 3.800000
endloop
endfacet
facet normal -0.991852 0.127394 0.000000
outer loop
vertex 1.560264 0.985121 4.000000
vertex 1.628412 1.515700 4.000000
vertex 1.560264 0.985121 3.800000
endloop
endfacet
facet normal -0.991852 0.127395 0.000000
outer loop
vertex 1.628412 1.515700 4.000000
vertex 1.628412 1.515700 3.800000
vertex 1.560264 0.985121 3.800000
endloop
endfacet
facet normal -0.991852 -0.127395 0.000000
outer loop
vertex 1.628412 1.515700 4.000000
vertex 1.560264 2.046280 4.000000
vertex 1.628412 1.515700 3.800000
endloop
endfacet
facet normal -0.991852 -0.127393 0.000000
outer loop
vertex 1.560264 2.046280 4.000000
vertex 1.560264 2.046280 3.800000
vertex 1.628412 1.515700 3.800000
endloop
endfacet
facet normal -0.927156 -0.374675 0.000000
outer loop
vertex 1.560264 2.046280 4.000000
vertex 1.360463 2.540700 4.000000
vertex 1.560264 2.046280 3.800000
endloop
endfacet
facet normal -0.927156 -0.374675 0.000000
outer loop
vertex 1.360463 2.540700 4.000000
vertex 1.360463 2.540700 3.800000
vertex 1.560264 2.046280 3.800000
endloop
endfacet
facet normal -0.000000 0.000000 1.000000
outer loop
vertex 1.360463 2.540700 4.000000
vertex 1.128412 3.015700 4.000000
vertex 1.000000 2.998790 4.000000
endloop
endfacet
facet normal 0.000000 0.000001 1.000000
outer loop
vertex 1.360463 2.540700 4.000000
vertex 1.516641 2.964590 4.000000
vertex 1.128412 3.015700 4.000000
endloop
endfacet
facet normal 0.000001 0.000000 1.000000
outer loop
vertex 1.360463 2.540700 4.000000
vertex 1.878412 2.814740 4.000000
vertex 1.516641 2.964590 4.000000
endloop
endfacet
facet normal 0.000000 0.000000 1.000000
outer loop
vertex 1.560264 2.046280 4.000000
vertex 1.878412 2.814740 4.000000
vertex 1.360463 2.540700 4.000000
endloop
endfacet
facet normal 0.000000 0.000000 1.000000
outer loop
vertex 1.560264 2.046280 4.000000
vertex 2.189070 2.576360 4.000000
vertex 1.878412 2.814740 4.000000
endloop
endfacet
facet normal 0.000000 0.000000 1.000000
outer loop
vertex 1.560264 2.046280 4.000000
vertex 2.427450 2.265700 4.000000
vertex 2.189070 2.576360 4.000000
endloop
endfacet
facet normal 0.000000 0.000000 1.000000
outer loop
vertex 1.628412 1.515700 4.000000
vertex 2.427450 2.265700 4.000000
vertex 1.560264 2.046280 4.000000
endloop
endfacet
facet normal 0.000000 0.000000 1.000000
outer loop
vertex 1.628412 1.515700 4.000000
vertex 2.577300 1.903930 4.000000
vertex 2.427450 2.265700 4.000000
endloop
endfacet
facet normal 0.000000 0.000000 1.000000
outer loop
vertex 1.628412 1.515700 4.000000
vertex 2.628410 1.515700 4.000000
vertex 2.577300 1.903930 4.000000
endloop
endfacet
facet normal 0.000000 0.000000 1.000000
outer loop
vertex 1.560264 0.985121 4.000000
vertex 2.628410 1.515700 4.000000
vertex 1.628412 1.515700 4.000000
endloop
endfacet
facet normal 0.000000 0.000000 1.000000
outer loop
vertex 1.560264 0.985121 4.000000
vertex 2.577300 1.127470 4.000000
vertex 2.628410 1.515700 4.000000
endloop
endfacet
facet normal 0.000000 0.000000 1.000000
outer loop
vertex 2.427450 0.765700 4.000000
vertex 2.577300 1.127470 4.000000
vertex 1.560264 0.985121 4.000000
endloop
endfacet
facet normal 0.000000 0.000000 1.000000
outer loop
vertex 1.360463 0.490700 4.000000
vertex 2.427450 0.765700 4.000000
vertex 1.560264 0.985121 4.000000
endloop
endfacet
facet normal 0.000000 0.000000 1.000000
outer loop
vertex 2.189070 0.455040 4.000000
vertex 2.427450 0.765700 4.000000
vertex 1.360463 0.490700 4.000000
endloop
endfacet
facet normal 0.000000 0.000000 1.000000
outer loop
vertex 1.878412 0.216662 4.000000
vertex 2.189070 0.455040 4.000000
vertex 1.360463 0.490700 4.000000
endloop
endfacet
facet normal 0.000000 0.000000 1.000000
outer loop
vertex 1.516641 0.066811 4.000000
vertex 1.878412 0.216662 4.000000
vertex 1.360463 0.490700 4.000000
endloop
endfacet
facet normal 0.000000 0.000000 1.000000
outer loop
vertex 1.128412 0.015700 4.000000
vertex 1.516641 0.066811 4.000000
vertex 1.360463 0.490700 4.000000
endloop
endfacet
facet normal 0.000000 0.000000 1.000000
outer loop
vertex 1.128412 0.015700 4.000000
vertex 1.360463 0.490700 4.000000
vertex 1.000000 0.032606 4.000000
endloop
endfacet
facet normal -0.000013 0.000000 -1.000000
outer loop
vertex 2.383780 0.790916 3.650000
vertex 2.577980 1.515700 3.650000
vertex 2.528590 1.140520 3.650000
endloop
endfacet
facet normal 0.000000 -0.000001 -1.000000
outer loop
vertex 2.153410 0.490700 3.650000
vertex 2.577980 1.515700 3.650000
vertex 2.383780 0.790916 3.650000
endloop
endfacet
facet normal -0.000002 -0.000000 -1.000000
outer loop
vertex 1.853196 0.260337 3.650000
vertex 2.577980 1.515700 3.650000
vertex 2.153410 0.490700 3.650000
endloop
endfacet
facet normal 0.000000 -0.000000 -1.000000
outer loop
vertex 1.503588 0.115524 3.650000
vertex 2.577980 1.515700 3.650000
vertex 1.853196 0.260337 3.650000
endloop
endfacet
facet normal 0.000002 -0.000000 -1.000000
outer loop
vertex 1.128412 0.066132 3.650000
vertex 2.577980 1.515700 3.650000
vertex 1.503588 0.115524 3.650000
endloop
endfacet
facet normal -0.000001 -0.000000 -1.000000
outer loop
vertex 1.128412 0.066132 3.650000
vertex 2.528590 1.890880 3.650000
vertex 2.577980 1.515700 3.650000
endloop
endfacet
facet normal 0.000003 0.000000 -1.000000
outer loop
vertex 2.383780 2.240480 3.650000
vertex 1.853196 2.771060 3.650000
vertex 2.153410 2.540700 3.650000
endloop
endfacet
facet normal 0.000000 0.000000 -1.000000
outer loop
vertex 2.383780 2.240480 3.650000
vertex 1.503588 2.915880 3.650000
vertex 1.853196 2.771060 3.650000
endloop
endfacet
facet normal 0.000001 0.000000 -1.000000
outer loop
vertex 2.383780 2.240480 3.650000
vertex 1.128412 2.965270 3.650000
vertex 1.503588 2.915880 3.650000
endloop
endfacet
facet normal -0.000001 0.000000 -1.000000
outer loop
vertex 2.528590 1.890880 3.650000
vertex 1.128412 2.965270 3.650000
vertex 2.383780 2.240480 3.650000
endloop
endfacet
facet normal 0.000000 0.000000 -1.000000
outer loop
vertex 1.404155 2.566030 3.650000
vertex 1.093609 2.960690 3.650000
vertex 1.128412 2.965270 3.650000
endloop
endfacet
facet normal 0.000000 0.000000 -1.000000
outer loop
vertex 2.528590 1.890880 3.650000
vertex 1.404155 2.566030 3.650000
vertex 1.128412 2.965270 3.650000
endloop
endfacet
facet normal 0.000000 0.000000 -1.000000
outer loop
vertex 2.528590 1.890880 3.650000
vertex 1.609035 2.059040 3.650000
vertex 1.404155 2.566030 3.650000
endloop
endfacet
facet normal 0.000000 0.000000 -1.000000
outer loop
vertex 1.678823 1.515700 3.650000
vertex 1.609035 2.059040 3.650000
vertex 2.528590 1.890880 3.650000
endloop
endfacet
facet normal 0.000000 -0.000000 -1.000000
outer loop
vertex 1.609035 0.972361 3.650000
vertex 1.678823 1.515700 3.650000
vertex 2.528590 1.890880 3.650000
endloop
endfacet
facet normal 0.000016 0.000000 -1.000000
outer loop
vertex 1.128412 0.066132 3.650000
vertex 1.093609 0.070713 3.650000
vertex 1.404155 0.465371 3.650000
endloop
endfacet
facet normal 0.000002 0.000000 -1.000000
outer loop
vertex 1.404155 0.465371 3.650000
vertex 1.609035 0.972361 3.650000
vertex 2.528590 1.890880 3.650000
endloop
endfacet
facet normal -0.000017 0.000001 -1.000000
outer loop
vertex 1.128412 0.066132 3.650000
vertex 1.404155 0.465371 3.650000
vertex 2.528590 1.890880 3.650000
endloop
endfacet
facet normal -0.123861 0.940573 -0.316199
outer loop
vertex 1.000000 2.998790 3.800000
vertex 1.128412 3.015700 3.800000
vertex 1.093609 2.960690 3.650000
endloop
endfacet
facet normal -0.123779 0.940576 -0.316222
outer loop
vertex 1.128412 3.015700 3.800000
vertex 1.128412 2.965270 3.650000
vertex 1.093609 2.960690 3.650000
endloop
endfacet
facet normal -0.745549 -0.586649 -0.316226
outer loop
vertex 1.360463 2.540700 3.800000
vertex 1.093609 2.960690 3.650000
vertex 1.404155 2.566030 3.650000
endloop
endfacet
facet normal -0.745537 -0.586650 -0.316253
outer loop
vertex 1.360463 2.540700 3.800000
vertex 1.000000 2.998790 3.800000
vertex 1.093609 2.960690 3.650000
endloop
endfacet
facet normal -0.879579 -0.355449 -0.316223
outer loop
vertex 1.560264 2.046280 3.800000
vertex 1.360463 2.540700 3.800000
vertex 1.609035 2.059040 3.650000
endloop
endfacet
facet normal -0.879578 -0.355447 -0.316226
outer loop
vertex 1.360463 2.540700 3.800000
vertex 1.404155 2.566030 3.650000
vertex 1.609035 2.059040 3.650000
endloop
endfacet
facet normal -0.940953 -0.120856 -0.316229
outer loop
vertex 1.628412 1.515700 3.800000
vertex 1.560264 2.046280 3.800000
vertex 1.678823 1.515700 3.650000
endloop
endfacet
facet normal -0.940955 -0.120859 -0.316223
outer loop
vertex 1.560264 2.046280 3.800000
vertex 1.609035 2.059040 3.650000
vertex 1.678823 1.515700 3.650000
endloop
endfacet
facet normal -0.940954 0.120859 -0.316224
outer loop
vertex 1.560264 0.985121 3.800000
vertex 1.678823 1.515700 3.650000
vertex 1.609035 0.972361 3.650000
endloop
endfacet
facet normal -0.940953 0.120856 -0.316229
outer loop
vertex 1.560264 0.985121 3.800000
vertex 1.628412 1.515700 3.800000
vertex 1.678823 1.515700 3.650000
endloop
endfacet
facet normal -0.879579 0.355448 -0.316225
outer loop
vertex 1.360463 0.490700 3.800000
vertex 1.609035 0.972361 3.650000
vertex 1.404155 0.465371 3.650000
endloop
endfacet
facet normal -0.879579 0.355448 -0.316223
outer loop
vertex 1.360463 0.490700 3.800000
vertex 1.560264 0.985121 3.800000
vertex 1.609035 0.972361 3.650000
endloop
endfacet
facet normal -0.745547 0.586651 -0.316228
outer loop
vertex 1.000000 0.032606 3.800000
vertex 1.360463 0.490700 3.800000
vertex 1.093609 0.070713 3.650000
endloop
endfacet
facet normal -0.745549 0.586650 -0.316225
outer loop
vertex 1.360463 0.490700 3.800000
vertex 1.404155 0.465371 3.650000
vertex 1.093609 0.070713 3.650000
endloop
endfacet
facet normal -0.123824 -0.940567 -0.316229
outer loop
vertex 1.128412 0.015700 3.800000
vertex 1.093609 0.070713 3.650000
vertex 1.128412 0.066132 3.650000
endloop
endfacet
facet normal -0.123829 -0.940567 -0.316228
outer loop
vertex 1.128412 0.015700 3.800000
vertex 1.000000 0.032606 3.800000
vertex 1.093609 0.070713 3.650000
endloop
endfacet
facet normal 0.123828 -0.940567 -0.316229
outer loop
vertex 1.128412 0.015700 3.800000
vertex 1.503588 0.115524 3.650000
vertex 1.516641 0.066811 3.800000
endloop
endfacet
facet normal 0.123827 -0.940567 -0.316228
outer loop
vertex 1.128412 0.015700 3.800000
vertex 1.128412 0.066132 3.650000
vertex 1.503588 0.115524 3.650000
endloop
endfacet
facet normal 0.363047 -0.876468 -0.316229
outer loop
vertex 1.516641 0.066811 3.800000
vertex 1.853196 0.260337 3.650000
vertex 1.878412 0.216662 3.800000
endloop
endfacet
facet normal 0.363045 -0.876469 -0.316229
outer loop
vertex 1.516641 0.066811 3.800000
vertex 1.503588 0.115524 3.650000
vertex 1.853196 0.260337 3.650000
endloop
endfacet
facet normal 0.577526 -0.752639 -0.316225
outer loop
vertex 1.878412 0.216662 3.800000
vertex 2.153410 0.490700 3.650000
vertex 2.189070 0.455040 3.800000
endloop
endfacet
facet normal 0.577522 -0.752641 -0.316229
outer loop
vertex 1.878412 0.216662 3.800000
vertex 1.853196 0.260337 3.650000
vertex 2.153410 0.490700 3.650000
endloop
endfacet
facet normal 0.752640 -0.577525 -0.316224
outer loop
vertex 2.189070 0.455040 3.800000
vertex 2.153410 0.490700 3.650000
vertex 2.427450 0.765700 3.800000
endloop
endfacet
facet normal 0.752640 -0.577536 -0.316206
outer loop
vertex 2.427450 0.765700 3.800000
vertex 2.153410 0.490700 3.650000
vertex 2.383780 0.790916 3.650000
endloop
endfacet
facet normal 0.876478 -0.363048 -0.316200
outer loop
vertex 2.427450 0.765700 3.800000
vertex 2.383780 0.790916 3.650000
vertex 2.577300 1.127470 3.800000
endloop
endfacet
facet normal 0.876475 -0.363048 -0.316208
outer loop
vertex 2.577300 1.127470 3.800000
vertex 2.383780 0.790916 3.650000
vertex 2.528590 1.140520 3.650000
endloop
endfacet
facet normal 0.940574 -0.123824 -0.316208
outer loop
vertex 2.577300 1.127470 3.800000
vertex 2.528590 1.140520 3.650000
vertex 2.628410 1.515700 3.800000
endloop
endfacet
facet normal 0.940571 -0.123821 -0.316219
outer loop
vertex 2.628410 1.515700 3.800000
vertex 2.528590 1.140520 3.650000
vertex 2.577980 1.515700 3.650000
endloop
endfacet
facet normal 0.940574 0.123824 -0.316209
outer loop
vertex 2.628410 1.515700 3.800000
vertex 2.528590 1.890880 3.650000
vertex 2.577300 1.903930 3.800000
endloop
endfacet
facet normal 0.940571 0.123821 -0.316219
outer loop
vertex 2.628410 1.515700 3.800000
vertex 2.577980 1.515700 3.650000
vertex 2.528590 1.890880 3.650000
endloop
endfacet
facet normal 0.876474 0.363048 -0.316211
outer loop
vertex 2.577300 1.903930 3.800000
vertex 2.383780 2.240480 3.650000
vertex 2.427450 2.265700 3.800000
endloop
endfacet
facet normal 0.876475 0.363050 -0.316206
outer loop
vertex 2.577300 1.903930 3.800000
vertex 2.528590 1.890880 3.650000
vertex 2.383780 2.240480 3.650000
endloop
endfacet
facet normal 0.752639 0.577527 -0.316224
outer loop
vertex 2.427450 2.265700 3.800000
vertex 2.153410 2.540700 3.650000
vertex 2.189070 2.576360 3.800000
endloop
endfacet
facet normal 0.752640 0.577529 -0.316218
outer loop
vertex 2.427450 2.265700 3.800000
vertex 2.383780 2.240480 3.650000
vertex 2.153410 2.540700 3.650000
endloop
endfacet
facet normal 0.577513 0.752638 -0.316251
outer loop
vertex 1.878412 2.814740 3.800000
vertex 2.153410 2.540700 3.650000
vertex 1.853196 2.771060 3.650000
endloop
endfacet
facet normal 0.577529 0.752637 -0.316225
outer loop
vertex 2.189070 2.576360 3.800000
vertex 2.153410 2.540700 3.650000
vertex 1.878412 2.814740 3.800000
endloop
endfacet
facet normal 0.363041 0.876461 -0.316256
outer loop
vertex 1.878412 2.814740 3.800000
vertex 1.853196 2.771060 3.650000
vertex 1.516641 2.964590 3.800000
endloop
endfacet
facet normal 0.363064 0.876468 -0.316211
outer loop
vertex 1.516641 2.964590 3.800000
vertex 1.853196 2.771060 3.650000
vertex 1.503588 2.915880 3.650000
endloop
endfacet
facet normal 0.123826 0.940573 -0.316210
outer loop
vertex 1.516641 2.964590 3.800000
vertex 1.503588 2.915880 3.650000
vertex 1.128412 3.015700 3.800000
endloop
endfacet
facet normal 0.123821 0.940570 -0.316221
outer loop
vertex 1.128412 3.015700 3.800000
vertex 1.503588 2.915880 3.650000
vertex 1.128412 2.965270 3.650000
endloop
endfacet
endsolid Exported from Blender-2.77 (sub 0)
