solid Exported from Blender-2.77 (sub 0)
facet normal 0.000000 0.000000 1.000000
outer loop
vertex 0.664443 0.715801 5.999384
vertex 0.199443 1.521205 5.999384
vertex -0.169595 0.771205 5.999384
endloop
endfacet
facet normal 0.000001 0.000000 1.000000
outer loop
vertex 0.199443 1.521205 5.999384
vertex 0.664443 2.326604 5.999384
vertex -0.169595 2.271204 5.999384
endloop
endfacet
facet normal 0.000000 0.000000 1.000000
outer loop
vertex 1.129443 0.021205 5.999384
vertex 1.594443 0.715801 5.999384
vertex 0.664443 0.715801 5.999384
endloop
endfacet
facet normal 0.000000 0.000000 1.000000
outer loop
vertex 0.664443 2.326604 5.999384
vertex 1.594443 2.326604 5.999384
vertex 1.129443 3.021204 5.999384
endloop
endfacet
facet normal 0.000000 0.000000 1.000000
outer loop
vertex 1.594443 0.715801 5.999384
vertex 2.428483 0.771205 5.999384
vertex 2.059443 1.521205 5.999384
endloop
endfacet
facet normal -0.000001 0.000000 1.000000
outer loop
vertex 2.059443 1.521205 5.999384
vertex 2.428483 2.271204 5.999384
vertex 1.594443 2.326604 5.999384
endloop
endfacet
facet normal 0.000000 0.000000 1.000000
outer loop
vertex 0.664443 0.715801 5.999384
vertex 0.664443 2.326604 5.999384
vertex 0.199443 1.521205 5.999384
endloop
endfacet
facet normal 0.000000 0.000000 1.000000
outer loop
vertex 0.664443 0.715801 5.999384
vertex 1.594443 0.715801 5.999384
vertex 0.664443 2.326604 5.999384
endloop
endfacet
facet normal 0.000000 0.000000 1.000000
outer loop
vertex 1.594443 0.715801 5.999384
vertex 2.059443 1.521205 5.999384
vertex 0.664443 2.326604 5.999384
endloop
endfacet
facet normal 0.000000 0.000000 1.000000
outer loop
vertex 2.059443 1.521205 5.999384
vertex 1.594443 2.326604 5.999384
vertex 0.664443 2.326604 5.999384
endloop
endfacet
facet normal -0.897262 -0.441499 0.000000
outer loop
vertex 0.199443 1.521205 5.999384
vertex -0.169595 2.271204 5.999384
vertex 0.199443 1.521205 5.749384
endloop
endfacet
facet normal -0.897262 -0.441499 0.000000
outer loop
vertex -0.169595 2.271204 5.999384
vertex -0.169595 2.271204 5.749384
vertex 0.199443 1.521205 5.749384
endloop
endfacet
facet normal -0.066278 0.997801 0.000000
outer loop
vertex -0.169595 2.271204 5.999384
vertex 0.664443 2.326604 5.999384
vertex -0.169595 2.271204 5.749384
endloop
endfacet
facet normal -0.066278 0.997801 0.000000
outer loop
vertex 0.664443 2.326604 5.999384
vertex 0.664443 2.326604 5.749384
vertex -0.169595 2.271204 5.749384
endloop
endfacet
facet normal -0.830982 0.556299 0.000000
outer loop
vertex 0.664443 2.326604 5.999384
vertex 1.129443 3.021204 5.999384
vertex 0.664443 2.326604 5.749384
endloop
endfacet
facet normal -0.830981 0.556301 0.000000
outer loop
vertex 1.129443 3.021204 5.999384
vertex 1.129443 3.021204 5.749384
vertex 0.664443 2.326604 5.749384
endloop
endfacet
facet normal 0.830982 0.556299 0.000000
outer loop
vertex 1.594443 2.326604 5.999384
vertex 1.594443 2.326604 5.749384
vertex 1.129443 3.021204 5.999384
endloop
endfacet
facet normal 0.830981 0.556301 0.000000
outer loop
vertex 1.129443 3.021204 5.999384
vertex 1.594443 2.326604 5.749384
vertex 1.129443 3.021204 5.749384
endloop
endfacet
facet normal 0.066278 0.997801 0.000000
outer loop
vertex 2.428483 2.271204 5.999384
vertex 2.428483 2.271204 5.749384
vertex 1.594443 2.326604 5.999384
endloop
endfacet
facet normal 0.066277 0.997801 0.000000
outer loop
vertex 1.594443 2.326604 5.999384
vertex 2.428483 2.271204 5.749384
vertex 1.594443 2.326604 5.749384
endloop
endfacet
facet normal 0.897261 -0.441500 0.000000
outer loop
vertex 2.059443 1.521205 5.999384
vertex 2.059443 1.521205 5.749384
vertex 2.428483 2.271204 5.999384
endloop
endfacet
facet normal 0.897261 -0.441500 0.000000
outer loop
vertex 2.428483 2.271204 5.999384
vertex 2.059443 1.521205 5.749384
vertex 2.428483 2.271204 5.749384
endloop
endfacet
facet normal 0.897261 0.441500 0.000000
outer loop
vertex 2.428483 0.771205 5.999384
vertex 2.428483 0.771205 5.749384
vertex 2.059443 1.521205 5.999384
endloop
endfacet
facet normal 0.897261 0.441500 0.000000
outer loop
vertex 2.059443 1.521205 5.999384
vertex 2.428483 0.771205 5.749384
vertex 2.059443 1.521205 5.749384
endloop
endfacet
facet normal 0.066283 -0.997801 0.000000
outer loop
vertex 1.594443 0.715801 5.999384
vertex 1.594443 0.715801 5.749384
vertex 2.428483 0.771205 5.999384
endloop
endfacet
facet normal 0.066282 -0.997801 0.000000
outer loop
vertex 2.428483 0.771205 5.999384
vertex 1.594443 0.715801 5.749384
vertex 2.428483 0.771205 5.749384
endloop
endfacet
facet normal 0.830980 -0.556303 0.000000
outer loop
vertex 1.129443 0.021205 5.999384
vertex 1.129443 0.021205 5.749384
vertex 1.594443 0.715801 5.999384
endloop
endfacet
facet normal 0.830980 -0.556302 0.000000
outer loop
vertex 1.594443 0.715801 5.999384
vertex 1.129443 0.021205 5.749384
vertex 1.594443 0.715801 5.749384
endloop
endfacet
facet normal -0.830980 -0.556303 0.000000
outer loop
vertex 1.129443 0.021205 5.999384
vertex 0.664443 0.715801 5.999384
vertex 1.129443 0.021205 5.749384
endloop
endfacet
facet normal -0.830980 -0.556302 0.000000
outer loop
vertex 0.664443 0.715801 5.999384
vertex 0.664443 0.715801 5.749384
vertex 1.129443 0.021205 5.749384
endloop
endfacet
facet normal -0.066283 -0.997801 0.000000
outer loop
vertex 0.664443 0.715801 5.999384
vertex -0.169595 0.771205 5.999384
vertex 0.664443 0.715801 5.749384
endloop
endfacet
facet normal -0.066282 -0.997801 0.000000
outer loop
vertex -0.169595 0.771205 5.999384
vertex -0.169595 0.771205 5.749384
vertex 0.664443 0.715801 5.749384
endloop
endfacet
facet normal -0.897262 0.441499 0.000000
outer loop
vertex -0.169595 0.771205 5.999384
vertex 0.199443 1.521205 5.999384
vertex -0.169595 0.771205 5.749384
endloop
endfacet
facet normal -0.897262 0.441499 0.000000
outer loop
vertex 0.199443 1.521205 5.999384
vertex 0.199443 1.521205 5.749384
vertex -0.169595 0.771205 5.749384
endloop
endfacet
facet normal 0.000001 0.000000 -1.000000
outer loop
vertex 0.310893 1.521205 5.649384
vertex -0.013920 2.181324 5.649384
vertex 0.720168 2.230084 5.649384
endloop
endfacet
facet normal 0.000000 0.000000 -1.000000
outer loop
vertex 0.720168 0.812320 5.649384
vertex -0.013920 0.861084 5.649384
vertex 0.310893 1.521205 5.649384
endloop
endfacet
facet normal 0.000000 0.000000 -1.000000
outer loop
vertex 0.720168 2.230084 5.649384
vertex 1.129443 2.841444 5.649384
vertex 1.538713 2.230084 5.649384
endloop
endfacet
facet normal 0.000000 0.000000 -1.000000
outer loop
vertex 1.129443 0.200963 5.649384
vertex 0.720168 0.812320 5.649384
vertex 1.538713 0.812320 5.649384
endloop
endfacet
facet normal -0.000001 0.000000 -1.000000
outer loop
vertex 1.947993 1.521205 5.649384
vertex 1.538713 2.230084 5.649384
vertex 2.272803 2.181324 5.649384
endloop
endfacet
facet normal 0.000000 0.000000 -1.000000
outer loop
vertex 1.538713 0.812320 5.649384
vertex 1.947993 1.521205 5.649384
vertex 2.272803 0.861084 5.649384
endloop
endfacet
facet normal 0.000000 0.000000 -1.000000
outer loop
vertex 0.720168 0.812320 5.649384
vertex 0.310893 1.521205 5.649384
vertex 0.720168 2.230084 5.649384
endloop
endfacet
facet normal 0.000000 0.000000 -1.000000
outer loop
vertex 0.720168 0.812320 5.649384
vertex 0.720168 2.230084 5.649384
vertex 1.538713 2.230084 5.649384
endloop
endfacet
facet normal 0.000000 0.000000 -1.000000
outer loop
vertex 0.720168 0.812320 5.649384
vertex 1.538713 2.230084 5.649384
vertex 1.947993 1.521205 5.649384
endloop
endfacet
facet normal 0.000000 0.000000 -1.000000
outer loop
vertex 0.720168 0.812320 5.649384
vertex 1.947993 1.521205 5.649384
vertex 1.538713 0.812320 5.649384
endloop
endfacet
facet normal -0.634464 0.312185 -0.707104
outer loop
vertex -0.169595 0.771205 5.749384
vertex 0.199443 1.521205 5.749384
vertex -0.013920 0.861084 5.649384
endloop
endfacet
facet normal -0.634456 0.312188 -0.707110
outer loop
vertex 0.199443 1.521205 5.749384
vertex 0.310893 1.521205 5.649384
vertex -0.013920 0.861084 5.649384
endloop
endfacet
facet normal -0.634460 -0.312187 -0.707106
outer loop
vertex 0.199443 1.521205 5.749384
vertex -0.013920 2.181324 5.649384
vertex 0.310893 1.521205 5.649384
endloop
endfacet
facet normal -0.634464 -0.312186 -0.707103
outer loop
vertex 0.199443 1.521205 5.749384
vertex -0.169595 2.271204 5.749384
vertex -0.013920 2.181324 5.649384
endloop
endfacet
facet normal -0.046867 0.705550 -0.707108
outer loop
vertex -0.169595 2.271204 5.749384
vertex 0.664443 2.326604 5.749384
vertex -0.013920 2.181324 5.649384
endloop
endfacet
facet normal -0.046864 0.705549 -0.707110
outer loop
vertex 0.664443 2.326604 5.749384
vertex 0.720168 2.230084 5.649384
vertex -0.013920 2.181324 5.649384
endloop
endfacet
facet normal -0.587593 0.393362 -0.707107
outer loop
vertex 0.664443 2.326604 5.749384
vertex 1.129443 3.021204 5.749384
vertex 1.129443 2.841444 5.649384
endloop
endfacet
facet normal -0.587587 0.393364 -0.707111
outer loop
vertex 0.664443 2.326604 5.749384
vertex 1.129443 2.841444 5.649384
vertex 0.720168 2.230084 5.649384
endloop
endfacet
facet normal 0.587593 0.393362 -0.707107
outer loop
vertex 1.594443 2.326604 5.749384
vertex 1.129443 2.841444 5.649384
vertex 1.129443 3.021204 5.749384
endloop
endfacet
facet normal 0.587577 0.393353 -0.707125
outer loop
vertex 1.594443 2.326604 5.749384
vertex 1.538713 2.230084 5.649384
vertex 1.129443 2.841444 5.649384
endloop
endfacet
facet normal 0.046866 0.705550 -0.707108
outer loop
vertex 2.428483 2.271204 5.749384
vertex 2.272803 2.181324 5.649384
vertex 1.594443 2.326604 5.749384
endloop
endfacet
facet normal 0.046864 0.705547 -0.707112
outer loop
vertex 1.594443 2.326604 5.749384
vertex 2.272803 2.181324 5.649384
vertex 1.538713 2.230084 5.649384
endloop
endfacet
facet normal 0.634451 -0.312182 -0.707117
outer loop
vertex 2.059443 1.521205 5.749384
vertex 2.272803 2.181324 5.649384
vertex 2.428483 2.271204 5.749384
endloop
endfacet
facet normal 0.634461 -0.312185 -0.707107
outer loop
vertex 2.059443 1.521205 5.749384
vertex 1.947993 1.521205 5.649384
vertex 2.272803 2.181324 5.649384
endloop
endfacet
facet normal 0.634450 0.312180 -0.707118
outer loop
vertex 2.428483 0.771205 5.749384
vertex 2.272803 0.861084 5.649384
vertex 2.059443 1.521205 5.749384
endloop
endfacet
facet normal 0.634458 0.312185 -0.707110
outer loop
vertex 2.059443 1.521205 5.749384
vertex 2.272803 0.861084 5.649384
vertex 1.947993 1.521205 5.649384
endloop
endfacet
facet normal 0.046868 -0.705551 -0.707108
outer loop
vertex 1.594443 0.715801 5.749384
vertex 2.272803 0.861084 5.649384
vertex 2.428483 0.771205 5.749384
endloop
endfacet
facet normal 0.046869 -0.705549 -0.707109
outer loop
vertex 1.594443 0.715801 5.749384
vertex 1.538713 0.812320 5.649384
vertex 2.272803 0.861084 5.649384
endloop
endfacet
facet normal 0.587577 -0.393356 -0.707124
outer loop
vertex 1.594443 0.715801 5.749384
vertex 1.129443 0.200963 5.649384
vertex 1.538713 0.812320 5.649384
endloop
endfacet
facet normal 0.587596 -0.393364 -0.707104
outer loop
vertex 1.129443 0.021205 5.749384
vertex 1.129443 0.200963 5.649384
vertex 1.594443 0.715801 5.749384
endloop
endfacet
facet normal -0.587586 -0.393366 -0.707111
outer loop
vertex 0.664443 0.715801 5.749384
vertex 0.720168 0.812320 5.649384
vertex 1.129443 0.200963 5.649384
endloop
endfacet
facet normal -0.587596 -0.393364 -0.707104
outer loop
vertex 1.129443 0.021205 5.749384
vertex 0.664443 0.715801 5.749384
vertex 1.129443 0.200963 5.649384
endloop
endfacet
facet normal -0.046869 -0.705550 -0.707108
outer loop
vertex 0.664443 0.715801 5.749384
vertex -0.013920 0.861084 5.649384
vertex 0.720168 0.812320 5.649384
endloop
endfacet
facet normal -0.046869 -0.705552 -0.707107
outer loop
vertex 0.664443 0.715801 5.749384
vertex -0.169595 0.771205 5.749384
vertex -0.013920 0.861084 5.649384
endloop
endfacet
facet normal -0.785871 -0.618390 0.000000
outer loop
vertex 1.734049 2.324422 2.737300
vertex 1.373586 2.782512 2.737300
vertex 1.734049 2.324422 2.537300
endloop
endfacet
facet normal -0.785873 -0.618388 0.000000
outer loop
vertex 1.373586 2.782512 2.737300
vertex 1.373586 2.782512 2.537300
vertex 1.734049 2.324422 2.537300
endloop
endfacet
facet normal -0.130559 0.991441 0.000000
outer loop
vertex 1.373586 2.782512 2.737300
vertex 1.501998 2.799422 2.737300
vertex 1.373586 2.782512 2.537300
endloop
endfacet
facet normal -0.130559 0.991440 0.000000
outer loop
vertex 1.501998 2.799422 2.737300
vertex 1.501998 2.799422 2.537300
vertex 1.373586 2.782512 2.537300
endloop
endfacet
facet normal 0.130523 0.991445 0.000000
outer loop
vertex 1.890227 2.748312 2.737300
vertex 1.890227 2.748312 2.537300
vertex 1.501998 2.799422 2.737300
endloop
endfacet
facet normal 0.130523 0.991445 0.000000
outer loop
vertex 1.501998 2.799422 2.737300
vertex 1.890227 2.748312 2.537300
vertex 1.501998 2.799422 2.537300
endloop
endfacet
facet normal 0.382682 0.923880 0.000000
outer loop
vertex 2.251998 2.598462 2.737300
vertex 2.251998 2.598462 2.537300
vertex 1.890227 2.748312 2.737300
endloop
endfacet
facet normal 0.382682 0.923880 0.000000
outer loop
vertex 1.890227 2.748312 2.737300
vertex 2.251998 2.598462 2.537300
vertex 1.890227 2.748312 2.537300
endloop
endfacet
facet normal 0.608767 0.793349 0.000000
outer loop
vertex 2.562656 2.360082 2.737300
vertex 2.562656 2.360082 2.537300
vertex 2.251998 2.598462 2.737300
endloop
endfacet
facet normal 0.608768 0.793348 0.000000
outer loop
vertex 2.251998 2.598462 2.737300
vertex 2.562656 2.360082 2.537300
vertex 2.251998 2.598462 2.537300
endloop
endfacet
facet normal 0.793351 0.608765 0.000000
outer loop
vertex 2.801036 2.049422 2.737300
vertex 2.801036 2.049422 2.537300
vertex 2.562656 2.360082 2.737300
endloop
endfacet
facet normal 0.793351 0.608765 0.000000
outer loop
vertex 2.562656 2.360082 2.737300
vertex 2.801036 2.049422 2.537300
vertex 2.562656 2.360082 2.537300
endloop
endfacet
facet normal 0.923880 0.382682 0.000000
outer loop
vertex 2.950886 1.687652 2.737300
vertex 2.950886 1.687652 2.537300
vertex 2.801036 2.049422 2.737300
endloop
endfacet
facet normal 0.923879 0.382685 0.000000
outer loop
vertex 2.801036 2.049422 2.737300
vertex 2.950886 1.687652 2.537300
vertex 2.801036 2.049422 2.537300
endloop
endfacet
facet normal 0.991445 0.130522 0.000000
outer loop
vertex 3.001996 1.299422 2.737300
vertex 3.001996 1.299422 2.537300
vertex 2.950886 1.687652 2.737300
endloop
endfacet
facet normal 0.991445 0.130522 0.000000
outer loop
vertex 2.950886 1.687652 2.737300
vertex 3.001996 1.299422 2.537300
vertex 2.950886 1.687652 2.537300
endloop
endfacet
facet normal 0.991445 -0.130522 0.000000
outer loop
vertex 2.950886 0.911192 2.737300
vertex 2.950886 0.911192 2.537300
vertex 3.001996 1.299422 2.737300
endloop
endfacet
facet normal 0.991445 -0.130522 0.000000
outer loop
vertex 3.001996 1.299422 2.737300
vertex 2.950886 0.911192 2.537300
vertex 3.001996 1.299422 2.537300
endloop
endfacet
facet normal 0.923879 -0.382685 0.000000
outer loop
vertex 2.801036 0.549422 2.737300
vertex 2.801036 0.549422 2.537300
vertex 2.950886 0.911192 2.737300
endloop
endfacet
facet normal 0.923880 -0.382683 0.000000
outer loop
vertex 2.950886 0.911192 2.737300
vertex 2.801036 0.549422 2.537300
vertex 2.950886 0.911192 2.537300
endloop
endfacet
facet normal 0.793351 -0.608764 0.000000
outer loop
vertex 2.562656 0.238762 2.737300
vertex 2.562656 0.238762 2.537300
vertex 2.801036 0.549422 2.737300
endloop
endfacet
facet normal 0.793350 -0.608765 0.000000
outer loop
vertex 2.801036 0.549422 2.737300
vertex 2.562656 0.238762 2.537300
vertex 2.801036 0.549422 2.537300
endloop
endfacet
facet normal 0.608765 -0.793351 0.000000
outer loop
vertex 2.251998 0.000384 2.737300
vertex 2.251998 0.000384 2.537300
vertex 2.562656 0.238762 2.737300
endloop
endfacet
facet normal 0.608764 -0.793351 0.000000
outer loop
vertex 2.562656 0.238762 2.737300
vertex 2.251998 0.000384 2.537300
vertex 2.562656 0.238762 2.537300
endloop
endfacet
facet normal 0.382684 -0.923879 0.000000
outer loop
vertex 1.890227 -0.149467 2.737300
vertex 1.890227 -0.149467 2.537300
vertex 2.251998 0.000384 2.737300
endloop
endfacet
facet normal 0.382684 -0.923879 0.000000
outer loop
vertex 2.251998 0.000384 2.737300
vertex 1.890227 -0.149467 2.537300
vertex 2.251998 0.000384 2.537300
endloop
endfacet
facet normal 0.130526 -0.991445 0.000000
outer loop
vertex 1.501998 -0.200578 2.737300
vertex 1.501998 -0.200578 2.537300
vertex 1.890227 -0.149467 2.737300
endloop
endfacet
facet normal 0.130526 -0.991445 0.000000
outer loop
vertex 1.890227 -0.149467 2.737300
vertex 1.501998 -0.200578 2.537300
vertex 1.890227 -0.149467 2.537300
endloop
endfacet
facet normal -0.130527 -0.991445 0.000000
outer loop
vertex 1.501998 -0.200578 2.737300
vertex 1.373586 -0.183672 2.737300
vertex 1.501998 -0.200578 2.537300
endloop
endfacet
facet normal -0.130526 -0.991445 0.000000
outer loop
vertex 1.373586 -0.183672 2.737300
vertex 1.373586 -0.183672 2.537300
vertex 1.501998 -0.200578 2.537300
endloop
endfacet
facet normal -0.785874 0.618386 -0.000000
outer loop
vertex 1.373586 -0.183672 2.737300
vertex 1.734049 0.274422 2.737300
vertex 1.373586 -0.183672 2.537300
endloop
endfacet
facet normal -0.785875 0.618386 0.000000
outer loop
vertex 1.734049 0.274422 2.737300
vertex 1.734049 0.274422 2.537300
vertex 1.373586 -0.183672 2.537300
endloop
endfacet
facet normal -0.927157 0.374674 0.000000
outer loop
vertex 1.734049 0.274422 2.737300
vertex 1.933850 0.768843 2.737300
vertex 1.734049 0.274422 2.537300
endloop
endfacet
facet normal -0.927156 0.374675 0.000000
outer loop
vertex 1.933850 0.768843 2.737300
vertex 1.933850 0.768843 2.537300
vertex 1.734049 0.274422 2.537300
endloop
endfacet
facet normal -0.991852 0.127394 0.000000
outer loop
vertex 1.933850 0.768843 2.737300
vertex 2.001998 1.299422 2.737300
vertex 1.933850 0.768843 2.537300
endloop
endfacet
facet normal -0.991852 0.127395 0.000000
outer loop
vertex 2.001998 1.299422 2.737300
vertex 2.001998 1.299422 2.537300
vertex 1.933850 0.768843 2.537300
endloop
endfacet
facet normal -0.991852 -0.127394 0.000000
outer loop
vertex 2.001998 1.299422 2.737300
vertex 1.933850 1.830002 2.737300
vertex 2.001998 1.299422 2.537300
endloop
endfacet
facet normal -0.991852 -0.127394 0.000000
outer loop
vertex 1.933850 1.830002 2.737300
vertex 1.933850 1.830002 2.537300
vertex 2.001998 1.299422 2.537300
endloop
endfacet
facet normal -0.927156 -0.374675 0.000000
outer loop
vertex 1.933850 1.830002 2.737300
vertex 1.734049 2.324422 2.737300
vertex 1.933850 1.830002 2.537300
endloop
endfacet
facet normal -0.927156 -0.374675 0.000000
outer loop
vertex 1.734049 2.324422 2.737300
vertex 1.734049 2.324422 2.537300
vertex 1.933850 1.830002 2.537300
endloop
endfacet
facet normal 0.000002 0.000000 1.000000
outer loop
vertex 1.734049 2.324422 2.737300
vertex 1.501998 2.799422 2.737300
vertex 1.373586 2.782512 2.737300
endloop
endfacet
facet normal -0.000001 0.000001 1.000000
outer loop
vertex 1.734049 2.324422 2.737300
vertex 1.890227 2.748312 2.737300
vertex 1.501998 2.799422 2.737300
endloop
endfacet
facet normal 0.000000 0.000000 1.000000
outer loop
vertex 1.734049 2.324422 2.737300
vertex 2.251998 2.598462 2.737300
vertex 1.890227 2.748312 2.737300
endloop
endfacet
facet normal 0.000000 0.000000 1.000000
outer loop
vertex 1.933850 1.830002 2.737300
vertex 2.251998 2.598462 2.737300
vertex 1.734049 2.324422 2.737300
endloop
endfacet
facet normal -0.000000 0.000000 1.000000
outer loop
vertex 1.933850 1.830002 2.737300
vertex 2.562656 2.360082 2.737300
vertex 2.251998 2.598462 2.737300
endloop
endfacet
facet normal -0.000000 0.000000 1.000000
outer loop
vertex 1.933850 1.830002 2.737300
vertex 2.801036 2.049422 2.737300
vertex 2.562656 2.360082 2.737300
endloop
endfacet
facet normal -0.000000 0.000000 1.000000
outer loop
vertex 2.001998 1.299422 2.737300
vertex 2.801036 2.049422 2.737300
vertex 1.933850 1.830002 2.737300
endloop
endfacet
facet normal 0.000000 0.000000 1.000000
outer loop
vertex 2.001998 1.299422 2.737300
vertex 2.950886 1.687652 2.737300
vertex 2.801036 2.049422 2.737300
endloop
endfacet
facet normal 0.000000 0.000000 1.000000
outer loop
vertex 2.001998 1.299422 2.737300
vertex 3.001996 1.299422 2.737300
vertex 2.950886 1.687652 2.737300
endloop
endfacet
facet normal 0.000000 0.000000 1.000000
outer loop
vertex 1.933850 0.768843 2.737300
vertex 3.001996 1.299422 2.737300
vertex 2.001998 1.299422 2.737300
endloop
endfacet
facet normal 0.000000 0.000000 1.000000
outer loop
vertex 1.933850 0.768843 2.737300
vertex 2.950886 0.911192 2.737300
vertex 3.001996 1.299422 2.737300
endloop
endfacet
facet normal 0.000000 0.000000 1.000000
outer loop
vertex 2.801036 0.549422 2.737300
vertex 2.950886 0.911192 2.737300
vertex 1.933850 0.768843 2.737300
endloop
endfacet
facet normal 0.000000 0.000000 1.000000
outer loop
vertex 1.734049 0.274422 2.737300
vertex 2.801036 0.549422 2.737300
vertex 1.933850 0.768843 2.737300
endloop
endfacet
facet normal 0.000000 0.000000 1.000000
outer loop
vertex 2.562656 0.238762 2.737300
vertex 2.801036 0.549422 2.737300
vertex 1.734049 0.274422 2.737300
endloop
endfacet
facet normal -0.000000 0.000000 1.000000
outer loop
vertex 2.251998 0.000384 2.737300
vertex 2.562656 0.238762 2.737300
vertex 1.734049 0.274422 2.737300
endloop
endfacet
facet normal 0.000000 0.000000 1.000000
outer loop
vertex 1.890227 -0.149467 2.737300
vertex 2.251998 0.000384 2.737300
vertex 1.734049 0.274422 2.737300
endloop
endfacet
facet normal 0.000000 0.000000 1.000000
outer loop
vertex 1.501998 -0.200578 2.737300
vertex 1.890227 -0.149467 2.737300
vertex 1.734049 0.274422 2.737300
endloop
endfacet
facet normal 0.000000 0.000000 1.000000
outer loop
vertex 1.501998 -0.200578 2.737300
vertex 1.734049 0.274422 2.737300
vertex 1.373586 -0.183672 2.737300
endloop
endfacet
facet normal 0.000000 0.000000 -1.000000
outer loop
vertex 2.757366 0.574638 2.387300
vertex 2.951566 1.299422 2.387300
vertex 2.902176 0.924242 2.387300
endloop
endfacet
facet normal -0.000002 0.000000 -1.000000
outer loop
vertex 2.526996 0.274422 2.387300
vertex 2.951566 1.299422 2.387300
vertex 2.757366 0.574638 2.387300
endloop
endfacet
facet normal 0.000005 0.000000 -1.000000
outer loop
vertex 2.226782 0.044059 2.387300
vertex 2.951566 1.299422 2.387300
vertex 2.526996 0.274422 2.387300
endloop
endfacet
facet normal 0.000000 -0.000000 -1.000000
outer loop
vertex 1.877174 -0.100754 2.387300
vertex 2.951566 1.299422 2.387300
vertex 2.226782 0.044059 2.387300
endloop
endfacet
facet normal 0.000000 -0.000000 -1.000000
outer loop
vertex 1.501998 -0.150147 2.387300
vertex 2.951566 1.299422 2.387300
vertex 1.877174 -0.100754 2.387300
endloop
endfacet
facet normal -0.000000 -0.000000 -1.000000
outer loop
vertex 1.501998 -0.150147 2.387300
vertex 2.902176 1.674602 2.387300
vertex 2.951566 1.299422 2.387300
endloop
endfacet
facet normal 0.000000 0.000000 -1.000000
outer loop
vertex 2.757366 2.024202 2.387300
vertex 2.226782 2.554782 2.387300
vertex 2.526996 2.324422 2.387300
endloop
endfacet
facet normal -0.000001 0.000000 -1.000000
outer loop
vertex 2.757366 2.024202 2.387300
vertex 1.877174 2.699602 2.387300
vertex 2.226782 2.554782 2.387300
endloop
endfacet
facet normal 0.000000 0.000000 -1.000000
outer loop
vertex 2.757366 2.024202 2.387300
vertex 1.501998 2.748992 2.387300
vertex 1.877174 2.699602 2.387300
endloop
endfacet
facet normal 0.000000 0.000000 -1.000000
outer loop
vertex 2.902176 1.674602 2.387300
vertex 1.501998 2.748992 2.387300
vertex 2.757366 2.024202 2.387300
endloop
endfacet
facet normal -0.000001 0.000000 -1.000000
outer loop
vertex 1.777741 2.349752 2.387300
vertex 1.467195 2.744412 2.387300
vertex 1.501998 2.748992 2.387300
endloop
endfacet
facet normal 0.000000 0.000000 -1.000000
outer loop
vertex 2.902176 1.674602 2.387300
vertex 1.777741 2.349752 2.387300
vertex 1.501998 2.748992 2.387300
endloop
endfacet
facet normal 0.000000 0.000000 -1.000000
outer loop
vertex 2.902176 1.674602 2.387300
vertex 1.982621 1.842762 2.387300
vertex 1.777741 2.349752 2.387300
endloop
endfacet
facet normal -0.000000 0.000000 -1.000000
outer loop
vertex 2.052409 1.299422 2.387300
vertex 1.982621 1.842762 2.387300
vertex 2.902176 1.674602 2.387300
endloop
endfacet
facet normal 0.000000 0.000000 -1.000000
outer loop
vertex 1.982621 0.756083 2.387300
vertex 2.052409 1.299422 2.387300
vertex 2.902176 1.674602 2.387300
endloop
endfacet
facet normal 0.000008 -0.000001 -1.000000
outer loop
vertex 1.501998 -0.150147 2.387300
vertex 1.467195 -0.145565 2.387300
vertex 1.777741 0.249093 2.387300
endloop
endfacet
facet normal 0.000000 0.000000 -1.000000
outer loop
vertex 1.777741 0.249093 2.387300
vertex 1.982621 0.756083 2.387300
vertex 2.902176 1.674602 2.387300
endloop
endfacet
facet normal -0.000009 -0.000005 -1.000000
outer loop
vertex 1.501998 -0.150147 2.387300
vertex 1.777741 0.249093 2.387300
vertex 2.902176 1.674602 2.387300
endloop
endfacet
facet normal -0.123862 0.940571 -0.316202
outer loop
vertex 1.373586 2.782512 2.537300
vertex 1.501998 2.799422 2.537300
vertex 1.467195 2.744412 2.387300
endloop
endfacet
facet normal -0.123776 0.940577 -0.316220
outer loop
vertex 1.501998 2.799422 2.537300
vertex 1.501998 2.748992 2.387300
vertex 1.467195 2.744412 2.387300
endloop
endfacet
facet normal -0.745549 -0.586650 -0.316227
outer loop
vertex 1.734049 2.324422 2.537300
vertex 1.467195 2.744412 2.387300
vertex 1.777741 2.349752 2.387300
endloop
endfacet
facet normal -0.745537 -0.586650 -0.316253
outer loop
vertex 1.734049 2.324422 2.537300
vertex 1.373586 2.782512 2.537300
vertex 1.467195 2.744412 2.387300
endloop
endfacet
facet normal -0.879579 -0.355449 -0.316222
outer loop
vertex 1.933850 1.830002 2.537300
vertex 1.734049 2.324422 2.537300
vertex 1.982621 1.842762 2.387300
endloop
endfacet
facet normal -0.879578 -0.355448 -0.316228
outer loop
vertex 1.734049 2.324422 2.537300
vertex 1.777741 2.349752 2.387300
vertex 1.982621 1.842762 2.387300
endloop
endfacet
facet normal -0.940953 -0.120857 -0.316229
outer loop
vertex 2.001998 1.299422 2.537300
vertex 1.933850 1.830002 2.537300
vertex 2.052409 1.299422 2.387300
endloop
endfacet
facet normal -0.940955 -0.120858 -0.316223
outer loop
vertex 1.933850 1.830002 2.537300
vertex 1.982621 1.842762 2.387300
vertex 2.052409 1.299422 2.387300
endloop
endfacet
facet normal -0.940955 0.120859 -0.316223
outer loop
vertex 1.933850 0.768843 2.537300
vertex 2.052409 1.299422 2.387300
vertex 1.982621 0.756083 2.387300
endloop
endfacet
facet normal -0.940953 0.120857 -0.316229
outer loop
vertex 1.933850 0.768843 2.537300
vertex 2.001998 1.299422 2.537300
vertex 2.052409 1.299422 2.387300
endloop
endfacet
facet normal -0.879579 0.355448 -0.316225
outer loop
vertex 1.734049 0.274422 2.537300
vertex 1.982621 0.756083 2.387300
vertex 1.777741 0.249093 2.387300
endloop
endfacet
facet normal -0.879580 0.355447 -0.316223
outer loop
vertex 1.734049 0.274422 2.537300
vertex 1.933850 0.768843 2.537300
vertex 1.982621 0.756083 2.387300
endloop
endfacet
facet normal -0.745546 0.586652 -0.316229
outer loop
vertex 1.373586 -0.183672 2.537300
vertex 1.734049 0.274422 2.537300
vertex 1.467195 -0.145565 2.387300
endloop
endfacet
facet normal -0.745549 0.586650 -0.316224
outer loop
vertex 1.734049 0.274422 2.537300
vertex 1.777741 0.249093 2.387300
vertex 1.467195 -0.145565 2.387300
endloop
endfacet
facet normal -0.123825 -0.940568 -0.316227
outer loop
vertex 1.501998 -0.200578 2.537300
vertex 1.467195 -0.145565 2.387300
vertex 1.501998 -0.150147 2.387300
endloop
endfacet
facet normal -0.123828 -0.940567 -0.316228
outer loop
vertex 1.501998 -0.200578 2.537300
vertex 1.373586 -0.183672 2.537300
vertex 1.467195 -0.145565 2.387300
endloop
endfacet
facet normal 0.123827 -0.940567 -0.316229
outer loop
vertex 1.501998 -0.200578 2.537300
vertex 1.877174 -0.100754 2.387300
vertex 1.890227 -0.149467 2.537300
endloop
endfacet
facet normal 0.123828 -0.940567 -0.316228
outer loop
vertex 1.501998 -0.200578 2.537300
vertex 1.501998 -0.150147 2.387300
vertex 1.877174 -0.100754 2.387300
endloop
endfacet
facet normal 0.363046 -0.876469 -0.316229
outer loop
vertex 1.890227 -0.149467 2.537300
vertex 2.226782 0.044059 2.387300
vertex 2.251998 0.000384 2.537300
endloop
endfacet
facet normal 0.363045 -0.876469 -0.316229
outer loop
vertex 1.890227 -0.149467 2.537300
vertex 1.877174 -0.100754 2.387300
vertex 2.226782 0.044059 2.387300
endloop
endfacet
facet normal 0.577526 -0.752639 -0.316224
outer loop
vertex 2.251998 0.000384 2.537300
vertex 2.526996 0.274422 2.387300
vertex 2.562656 0.238762 2.537300
endloop
endfacet
facet normal 0.577522 -0.752640 -0.316229
outer loop
vertex 2.251998 0.000384 2.537300
vertex 2.226782 0.044059 2.387300
vertex 2.526996 0.274422 2.387300
endloop
endfacet
facet normal 0.752639 -0.577526 -0.316224
outer loop
vertex 2.562656 0.238762 2.537300
vertex 2.526996 0.274422 2.387300
vertex 2.801036 0.549422 2.537300
endloop
endfacet
facet normal 0.752640 -0.577535 -0.316206
outer loop
vertex 2.801036 0.549422 2.537300
vertex 2.526996 0.274422 2.387300
vertex 2.757366 0.574638 2.387300
endloop
endfacet
facet normal 0.876477 -0.363049 -0.316202
outer loop
vertex 2.801036 0.549422 2.537300
vertex 2.757366 0.574638 2.387300
vertex 2.950886 0.911192 2.537300
endloop
endfacet
facet normal 0.876476 -0.363047 -0.316206
outer loop
vertex 2.950886 0.911192 2.537300
vertex 2.757366 0.574638 2.387300
vertex 2.902176 0.924242 2.387300
endloop
endfacet
facet normal 0.940574 -0.123824 -0.316209
outer loop
vertex 2.950886 0.911192 2.537300
vertex 2.902176 0.924242 2.387300
vertex 3.001996 1.299422 2.537300
endloop
endfacet
facet normal 0.940571 -0.123821 -0.316219
outer loop
vertex 3.001996 1.299422 2.537300
vertex 2.902176 0.924242 2.387300
vertex 2.951566 1.299422 2.387300
endloop
endfacet
facet normal 0.940574 0.123824 -0.316209
outer loop
vertex 3.001996 1.299422 2.537300
vertex 2.902176 1.674602 2.387300
vertex 2.950886 1.687652 2.537300
endloop
endfacet
facet normal 0.940571 0.123821 -0.316219
outer loop
vertex 3.001996 1.299422 2.537300
vertex 2.951566 1.299422 2.387300
vertex 2.902176 1.674602 2.387300
endloop
endfacet
facet normal 0.876474 0.363048 -0.316211
outer loop
vertex 2.950886 1.687652 2.537300
vertex 2.757366 2.024202 2.387300
vertex 2.801036 2.049422 2.537300
endloop
endfacet
facet normal 0.876475 0.363050 -0.316206
outer loop
vertex 2.950886 1.687652 2.537300
vertex 2.902176 1.674602 2.387300
vertex 2.757366 2.024202 2.387300
endloop
endfacet
facet normal 0.752639 0.577527 -0.316224
outer loop
vertex 2.801036 2.049422 2.537300
vertex 2.526996 2.324422 2.387300
vertex 2.562656 2.360082 2.537300
endloop
endfacet
facet normal 0.752640 0.577528 -0.316219
outer loop
vertex 2.801036 2.049422 2.537300
vertex 2.757366 2.024202 2.387300
vertex 2.526996 2.324422 2.387300
endloop
endfacet
facet normal 0.577513 0.752637 -0.316252
outer loop
vertex 2.251998 2.598462 2.537300
vertex 2.526996 2.324422 2.387300
vertex 2.226782 2.554782 2.387300
endloop
endfacet
facet normal 0.577528 0.752638 -0.316225
outer loop
vertex 2.562656 2.360082 2.537300
vertex 2.526996 2.324422 2.387300
vertex 2.251998 2.598462 2.537300
endloop
endfacet
facet normal 0.363041 0.876462 -0.316254
outer loop
vertex 2.251998 2.598462 2.537300
vertex 2.226782 2.554782 2.387300
vertex 1.890227 2.748312 2.537300
endloop
endfacet
facet normal 0.363064 0.876468 -0.316211
outer loop
vertex 1.890227 2.748312 2.537300
vertex 2.226782 2.554782 2.387300
vertex 1.877174 2.699602 2.387300
endloop
endfacet
facet normal 0.123826 0.940573 -0.316210
outer loop
vertex 1.890227 2.748312 2.537300
vertex 1.877174 2.699602 2.387300
vertex 1.501998 2.799422 2.537300
endloop
endfacet
facet normal 0.123821 0.940571 -0.316221
outer loop
vertex 1.501998 2.799422 2.537300
vertex 1.877174 2.699602 2.387300
vertex 1.501998 2.748992 2.387300
endloop
endfacet
endsolid Exported from Blender-2.77 (sub 0)
